<svg width="512" height="512" xmlns="http://www.w3.org/2000/svg" fill="#000000" role="img">
    <title>JavaScript</title>

    <g>
        <title>Layer 1</title>
        <path id="svg_1" d="m0,0l512,0l0,512l-512,0l0,-512z" fill="#F7DF1E" />
        <path id="svg_2"
            d="m82.2,320.2l39.2,-24.6c7.5,13.2 14.3,24.4 30.7,24.4c15.7,0 25.7,-6.2 25.7,-30.5l0,-145.7l48.8,0l0,143.8c0,50.6 -29.7,73.7 -72.9,73.7c-39,0 -61.6,-20.1 -71.5,-40.6m180.9,-4.6l39.2,-22.7c10.3,16.8 23.7,29.2 47.4,29.2c20,0 32.7,-10 32.7,-23.7c0,-16.5 -13.1,-22.3 -35.2,-31.9l-12,-5.2c-34.7,-14.7 -57.7,-33.2 -57.7,-72.3c0,-36 27.4,-63.5 70.3,-63.5c30.5,0 52.5,10.6 68.2,38.4l-37.3,24c-8.2,-14.7 -17,-20.6 -30.9,-20.6c-14,0 -22.9,8.9 -22.9,20.6c0,14.4 8.9,20.2 29.5,29l12,5.2c40.9,17.5 63.9,35.4 63.9,75.6c0,43.3 -34,67.5 -79.6,67.5c-44.7,0 -73.5,-21.2 -87.5,-49.1" />
    </g>
</svg>