<svg id="Layer_1" data-name="Layer 1" xmlns="http://www.w3.org/2000/svg" viewBox="0 0 280 300">
    <defs>
        <style>
            .cls-1{fill:#e44f26;}.cls-2{fill:#f1672a;}.cls-3{fill:#ebebeb;}.cls-4{fill:#010101;}.cls-5{fill:#fff;}</style>
    </defs>
    <title>HTML5 LOGO</title>
    <polygon class="cls-1"
        points="85.44 229.02 73.3 92.86 206.7 92.86 194.54 229 139.92 244.14 85.44 229.02" />
    <polygon class="cls-2" points="140 232.57 184.14 220.33 194.53 103.99 140 103.99 140 232.57" />
    <polygon class="cls-3"
        points="140 154.49 117.9 154.49 116.38 137.39 140 137.39 140 120.69 139.94 120.69 98.13 120.69 98.53 125.17 102.63 171.19 140 171.19 140 154.49" />
    <polygon class="cls-3"
        points="140 197.86 139.93 197.88 121.33 192.86 120.14 179.54 111.1 179.54 103.38 179.54 105.72 205.76 139.92 215.26 140 215.24 140 197.86" />
    <path class="cls-4"
        d="M85.71,55.86H94.2v8.38H102V55.86h8.49V81.25H102v-8.5H94.2v8.5H85.71V55.86Z" />
    <path class="cls-4" d="M121.61,64.28h-7.47V55.86h23.43v8.42H130.1v17h-8.49v-17Z" />
    <path class="cls-4"
        d="M141.29,55.86h8.85l5.44,8.92L161,55.86h8.85V81.25h-8.45V68.66l-5.84,9h-.14l-5.85-9V81.25h-8.3Z" />
    <path class="cls-4" d="M174.1,55.86h8.49v17h11.93v8.39H174.1Z" />
    <polygon class="cls-5"
        points="139.94 154.49 139.94 171.19 160.51 171.19 158.57 192.85 139.94 197.88 139.94 215.25 174.18 205.76 174.43 202.94 178.35 158.98 178.76 154.49 174.26 154.49 139.94 154.49" />
    <polygon class="cls-5"
        points="139.94 120.69 139.94 131.06 139.94 137.35 139.94 137.39 180.23 137.39 180.23 137.39 180.28 137.39 180.61 133.64 181.38 125.17 181.78 120.69 139.94 120.69" />
</svg>